HIERARCHY
ROOT Hips
{
    OFFSET 0.000000 0.000000 0.000000
    CHANNELS 6 Xposition Yposition Zposition Zrotation Xrotation Yrotation
    JOINT Spine
    {
        OFFSET -0.000000 7.305680 0.000000
        CHANNELS 3 Zrotation Xrotation Yrotation
        JOINT Spine1
        {
            OFFSET -0.000000 20.356600 0.000000
            CHANNELS 3 Zrotation Xrotation Yrotation
            JOINT Neck
            {
                OFFSET -0.000000 22.138500 0.000000
                CHANNELS 3 Zrotation Xrotation Yrotation
                JOINT Head
                {
                    OFFSET -0.000000 13.809501 1.781870
                    CHANNELS 3 Zrotation Xrotation Yrotation
                    End Site
                    {
                        OFFSET -0.000000 17.818779 0.000000
                    }
                }
            }
            JOINT LeftShoulder
            {
                OFFSET 3.599130 17.990000 0.023591
                CHANNELS 3 Zrotation Xrotation Yrotation
                JOINT LeftArm
                {
                    OFFSET 12.560999 0.000000 0.000000
                    CHANNELS 3 Zrotation Xrotation Yrotation
                    JOINT LeftForeArm
                    {
                        OFFSET 22.903299 0.000000 0.000000
                        CHANNELS 3 Zrotation Xrotation Yrotation
                        JOINT LeftHand
                        {
                            OFFSET 21.865299 0.000000 0.000000
                            CHANNELS 3 Zrotation Xrotation Yrotation
                            JOINT LeftHandThumb1
                            {
                                OFFSET 1.853710 -2.106480 2.949080
                                CHANNELS 3 Zrotation Xrotation Yrotation
                                JOINT LeftHandThumb2
                                {
                                    OFFSET 2.049150 0.000000 1.336400
                                    CHANNELS 3 Zrotation Xrotation Yrotation
                                    JOINT LeftHandThumb3
                                    {
                                        OFFSET 2.672810 0.000000 0.000000
                                        CHANNELS 3 Zrotation Xrotation Yrotation
                                        End Site
                                        {
                                            OFFSET 2.381310 0.000000 0.000000
                                        }
                                    }
                                }
                            }
                            JOINT LeftHandIndex1
                            {
                                OFFSET 7.583340 0.000000 2.949080
                                CHANNELS 3 Zrotation Xrotation Yrotation
                                JOINT LeftHandIndex2
                                {
                                    OFFSET 4.454680 0.000000 0.000000
                                    CHANNELS 3 Zrotation Xrotation Yrotation
                                    JOINT LeftHandIndex3
                                    {
                                        OFFSET 2.227340 0.000000 0.000000
                                        CHANNELS 3 Zrotation Xrotation Yrotation
                                        End Site
                                        {
                                            OFFSET 1.984424 0.000000 0.000000
                                        }
                                    }
                                }
                            }
                            JOINT LeftHandMiddle1
                            {
                                OFFSET 7.583340 0.000000 0.977409
                                CHANNELS 3 Zrotation Xrotation Yrotation
                                JOINT LeftHandMiddle2
                                {
                                    OFFSET 4.900150 0.000000 0.000000
                                    CHANNELS 3 Zrotation Xrotation Yrotation
                                    JOINT LeftHandMiddle3
                                    {
                                        OFFSET 2.672810 0.000000 0.000000
                                        CHANNELS 3 Zrotation Xrotation Yrotation
                                        End Site
                                        {
                                            OFFSET 2.381310 0.000000 0.000000
                                        }
                                    }
                                }
                            }
                            JOINT LeftHandRing1
                            {
                                OFFSET 7.162050 0.000000 -0.977409
                                CHANNELS 3 Zrotation Xrotation Yrotation
                                JOINT LeftHandRing2
                                {
                                    OFFSET 4.454680 0.000000 0.000000
                                    CHANNELS 3 Zrotation Xrotation Yrotation
                                    JOINT LeftHandRing3
                                    {
                                        OFFSET 2.227340 0.000000 0.000000
                                        CHANNELS 3 Zrotation Xrotation Yrotation
                                        End Site
                                        {
                                            OFFSET 1.984424 0.000000 0.000000
                                        }
                                    }
                                }
                            }
                            JOINT LeftHandPinky1
                            {
                                OFFSET 6.740750 0.000000 -2.949080
                                CHANNELS 3 Zrotation Xrotation Yrotation
                                JOINT LeftHandPinky2
                                {
                                    OFFSET 3.563750 0.000000 0.000000
                                    CHANNELS 3 Zrotation Xrotation Yrotation
                                    JOINT LeftHandPinky3
                                    {
                                        OFFSET 1.781870 0.000000 0.000000
                                        CHANNELS 3 Zrotation Xrotation Yrotation
                                        End Site
                                        {
                                            OFFSET 1.587538 0.000000 0.000000
                                        }
                                    }
                                }
                            }
                        }
                    }
                }
            }
            JOINT RightShoulder
            {
                OFFSET -3.506990 17.990000 0.023591
                CHANNELS 3 Zrotation Xrotation Yrotation
                JOINT RightArm
                {
                    OFFSET -12.560999 0.000000 0.000000
                    CHANNELS 3 Zrotation Xrotation Yrotation
                    JOINT RightForeArm
                    {
                        OFFSET -22.903299 0.000000 0.000000
                        CHANNELS 3 Zrotation Xrotation Yrotation
                        JOINT RightHand
                        {
                            OFFSET -21.865299 0.000000 0.000000
                            CHANNELS 3 Zrotation Xrotation Yrotation
                            JOINT RightHandThumb1
                            {
                                OFFSET -1.853710 -2.106480 2.949080
                                CHANNELS 3 Zrotation Xrotation Yrotation
                                JOINT RightHandThumb2
                                {
                                    OFFSET -2.049150 0.000000 1.336400
                                    CHANNELS 3 Zrotation Xrotation Yrotation
                                    JOINT RightHandThumb3
                                    {
                                        OFFSET -2.672810 0.000000 0.000000
                                        CHANNELS 3 Zrotation Xrotation Yrotation
                                        End Site
                                        {
                                            OFFSET -2.381310 0.000000 0.000000
                                        }
                                    }
                                }
                            }
                            JOINT RightHandIndex1
                            {
                                OFFSET -7.583340 0.000000 2.949080
                                CHANNELS 3 Zrotation Xrotation Yrotation
                                JOINT RightHandIndex2
                                {
                                    OFFSET -4.454680 0.000000 0.000000
                                    CHANNELS 3 Zrotation Xrotation Yrotation
                                    JOINT RightHandIndex3
                                    {
                                        OFFSET -2.227340 0.000000 0.000000
                                        CHANNELS 3 Zrotation Xrotation Yrotation
                                        End Site
                                        {
                                            OFFSET -1.984424 0.000000 0.000000
                                        }
                                    }
                                }
                            }
                            JOINT RightHandMiddle1
                            {
                                OFFSET -7.583340 0.000000 0.977409
                                CHANNELS 3 Zrotation Xrotation Yrotation
                                JOINT RightHandMiddle2
                                {
                                    OFFSET -4.900150 0.000000 0.000000
                                    CHANNELS 3 Zrotation Xrotation Yrotation
                                    JOINT RightHandMiddle3
                                    {
                                        OFFSET -2.672810 0.000000 0.000000
                                        CHANNELS 3 Zrotation Xrotation Yrotation
                                        End Site
                                        {
                                            OFFSET -2.381310 0.000000 0.000000
                                        }
                                    }
                                }
                            }
                            JOINT RightHandRing1
                            {
                                OFFSET -7.162050 0.000000 -0.977409
                                CHANNELS 3 Zrotation Xrotation Yrotation
                                JOINT RightHandRing2
                                {
                                    OFFSET -4.454680 0.000000 0.000000
                                    CHANNELS 3 Zrotation Xrotation Yrotation
                                    JOINT RightHandRing3
                                    {
                                        OFFSET -2.227340 0.000000 0.000000
                                        CHANNELS 3 Zrotation Xrotation Yrotation
                                        End Site
                                        {
                                            OFFSET -1.984424 0.000000 0.000000
                                        }
                                    }
                                }
                            }
                            JOINT RightHandPinky1
                            {
                                OFFSET -6.740750 0.000000 -2.949080
                                CHANNELS 3 Zrotation Xrotation Yrotation
                                JOINT RightHandPinky2
                                {
                                    OFFSET -3.563750 0.000000 0.000000
                                    CHANNELS 3 Zrotation Xrotation Yrotation
                                    JOINT RightHandPinky3
                                    {
                                        OFFSET -1.781870 0.000000 0.000000
                                        CHANNELS 3 Zrotation Xrotation Yrotation
                                        End Site
                                        {
                                            OFFSET -1.587538 0.000000 0.000000
                                        }
                                    }
                                }
                            }
                        }
                    }
                }
            }
        }
    }
    JOINT LeftUpLeg
    {
        OFFSET 8.909360 0.000000 0.000000
        CHANNELS 3 Zrotation Xrotation Yrotation
        JOINT LeftLeg
        {
            OFFSET -0.000000 -38.765602 0.000000
            CHANNELS 3 Zrotation Xrotation Yrotation
            JOINT LeftFoot
            {
                OFFSET -0.000000 -35.245003 0.000000
                CHANNELS 3 Zrotation Xrotation Yrotation
                JOINT LeftToeBase
                {
                    OFFSET -0.000000 -5.791090 13.364000
                    CHANNELS 3 Zrotation Xrotation Yrotation
                    End Site
                    {
                        OFFSET -0.000000 0.000000 3.563756
                    }
                }
            }
        }
    }
    JOINT RightUpLeg
    {
        OFFSET -8.909360 0.000000 0.000000
        CHANNELS 3 Zrotation Xrotation Yrotation
        JOINT RightLeg
        {
            OFFSET -0.000000 -38.765602 0.000000
            CHANNELS 3 Zrotation Xrotation Yrotation
            JOINT RightFoot
            {
                OFFSET -0.000000 -35.245003 0.000000
                CHANNELS 3 Zrotation Xrotation Yrotation
                JOINT RightToeBase
                {
                    OFFSET -0.000000 -5.791090 13.364000
                    CHANNELS 3 Zrotation Xrotation Yrotation
                    End Site
                    {
                        OFFSET -0.000000 0.000000 3.563756
                    }
                }
            }
        }
    }
}
MOTION
Frames:    4
Frame Time:    0.033333
4.902395    81.152000    125.041473    0.750237    1.723627    6.244958    -0.366537    -2.904969    -1.928121    -0.610500    6.576066    -0.604360    -0.020477    1.820530    -2.237146    -0.840099    -3.643021    -2.233049    1.322544    4.753744    -9.508686    -87.759018    29.238543    -1.063043    15.535351    -0.543968    -6.349134    -8.688559    -25.970161    9.608536    -2.514107    1.572691    -1.261489    0.000000    0.000000    0.000000    0.000000    0.000000    0.000000    -20.371372    4.339670    -11.518014    -41.618504    0.000000    0.000000    -20.809252    0.000000    0.000000    -30.359741    -0.886718    -2.188766    -60.764297    0.000000    0.000000    -30.382151    0.000000    0.000000    -39.446835    -7.587030    6.164565    -79.910080    0.000000    0.000000    -39.955036    0.000000    0.000000    -47.910912    -15.719171    13.750278    -99.636040    0.000000    0.000000    -49.818020    0.000000    0.000000    -4.193599    -0.069930    -0.798526    94.974464    48.503666    -8.074864    -10.123213    -32.920113    1.744173    16.638317    -46.125122    2.416949    0.108590    -3.180913    5.001417    0.000000    0.000000    0.000000    0.000000    0.000000    0.000000    9.237247    0.000000    -0.000000    18.474497    0.000000    -0.000000    9.237247    0.000000    -0.000000    17.981552    -1.590414    -3.126465    36.094528    0.000000    -0.000000    18.047264    0.000000    -0.000000    26.639172    -3.635490    -5.979033    53.714561    0.000000    -0.000000    26.857281    0.000000    -0.000000    35.471954    -6.164298    -8.569817    71.868523    0.000000    -0.000000    35.934261    0.000000    -0.000000    -1.385067    2.360100    -3.764752    1.303555    -6.414352    21.333498    -1.135690    3.216817    -20.079659    0.063691    -3.998102    -0.698089    0.685086    3.056709    4.875371    -0.893722    -4.354194    -17.050892    0.013538    -1.461365    2.910318    -0.312858    -0.739393    0.419680    
4.937394    81.153137    125.085434    0.775837    1.631181    6.052444    -0.236904    -3.081970    -1.869274    -0.634449    6.510457    -0.584657    -0.543562    3.105008    -2.458176    -1.647178    -1.454462    -2.435795    1.216383    4.785907    -9.218244    -87.749931    29.302965    -1.180564    15.508895    -0.269199    -6.149586    -8.548789    -25.961637    9.632517    -2.529186    1.596702    -1.251030    0.000000    0.000000    0.000000    0.000000    0.000000    0.000000    -20.354319    4.409727    -11.708900    -41.613392    0.000000    0.000000    -20.806696    0.000000    0.000000    -30.382187    -0.840262    -2.304227    -60.806992    0.000000    0.000000    -30.403490    0.000000    0.000000    -39.495819    -7.581169    6.115273    -80.000572    0.000000    0.000000    -40.000294    0.000000    0.000000    -47.973309    -15.767685    13.761048    -99.775795    0.000000    0.000000    -49.887897    0.000000    0.000000    -4.059019    -0.024222    -1.009935    94.744987    48.373287    -7.968184    -10.168123    -32.805790    1.698145    16.573160    -46.102867    2.237492    0.149252    -3.188181    5.042084    0.000000    0.000000    0.000000    0.000000    0.000000    0.000000    9.287661    0.000000    -0.000000    18.575321    0.000000    -0.000000    9.287661    0.000000    -0.000000    18.020765    -1.572556    -3.087979    36.169792    0.000000    -0.000000    18.084894    0.000000    -0.000000    26.669237    -3.593658    -5.905469    53.764267    0.000000    -0.000000    26.882132    0.000000    -0.000000    35.494698    -6.092210    -8.464428    71.891891    0.000000    -0.000000    35.945946    0.000000    -0.000000    -1.427671    2.492206    -3.683447    1.301775    -6.379343    21.360975    -1.119469    3.137965    -20.001165    0.062891    -4.001938    -0.696513    0.635579    3.101854    5.050378    -0.877442    -4.225758    -16.964108    0.034708    -1.525130    2.843329    -0.314484    -0.742356    0.421962    
4.960688    81.152245    125.105461    0.798761    1.493111    5.785299    -0.143507    -3.158691    -1.740458    -0.660428    6.739931    -0.539670    -0.855439    3.832827    -2.490441    -2.047125    -0.631843    -2.463643    1.103838    4.838469    -8.916753    -87.675667    29.129709    -1.376175    15.670323    -0.049804    -6.297631    -8.284903    -25.963242    9.710711    -2.524356    1.556217    -1.295210    0.000000    0.000000    0.000000    0.000000    0.000000    0.000000    -20.398590    4.551299    -12.045471    -41.758053    0.000000    0.000000    -20.879026    0.000000    0.000000    -30.469101    -0.732974    -2.528220    -60.976467    0.000000    0.000000    -30.488234    0.000000    0.000000    -39.605381    -7.531182    5.991434    -80.194870    0.000000    0.000000    -40.097435    0.000000    0.000000    -48.084347    -15.793546    13.730623    -99.995667    0.000000    0.000000    -49.997833    0.000000    0.000000    -3.895221    0.043802    -1.238745    94.420151    48.184582    -7.716880    -10.308150    -32.643230    1.774658    16.633886    -46.106262    2.342640    0.164021    -3.191376    5.057720    0.000000    0.000000    0.000000    0.000000    0.000000    0.000000    9.333299    0.000000    -0.000000    18.666597    0.000000    -0.000000    9.333299    0.000000    -0.000000    18.073568    -1.564218    -3.063838    36.273674    0.000000    -0.000000    18.136837    0.000000    -0.000000    26.730358    -3.573807    -5.858405    53.880756    0.000000    -0.000000    26.940376    0.000000    -0.000000    35.565701    -6.057456    -8.395300    72.021385    0.000000    -0.000000    36.010696    0.000000    -0.000000    -1.462508    2.649282    -3.563417    1.307767    -6.326625    21.374575    -1.113539    3.060883    -19.870653    0.062143    -4.001681    -0.694475    0.599530    3.151559    5.152618    -0.856178    -4.073300    -16.773863    0.056222    -1.578570    2.819088    -0.313482    -0.739698    0.420638    
4.967451    81.153549    125.078140    0.795948    1.353548    5.454660    -0.104298    -3.008273    -1.588499    -0.659972    7.153475    -0.487145    -0.807761    3.575085    -2.337841    -1.999219    -1.610650    -2.318972    0.988606    4.988550    -8.727336    -87.610733    28.827024    -1.492226    16.083651    -0.060418    -6.931993    -7.915818    -25.990822    9.745439    -2.505080    1.489105    -1.353812    0.000000    0.000000    0.000000    0.000000    0.000000    0.000000    -20.461428    4.684470    -12.346251    -41.936760    0.000000    0.000000    -20.968380    0.000000    0.000000    -30.540533    -0.608412    -2.752363    -61.115108    0.000000    0.000000    -30.557552    0.000000    0.000000    -39.673035    -7.428162    5.839321    -80.293449    0.000000    0.000000    -40.146721    0.000000    0.000000    -48.132965    -15.722505    13.650243    -100.052948    0.000000    0.000000    -50.026474    0.000000    0.000000    -3.783816    0.113626    -1.351410    94.190895    47.993633    -7.478888    -10.477647    -32.535236    1.966593    16.795273    -46.144073    2.794236    0.154416    -3.173071    5.022840    0.000000    0.000000    0.000000    0.000000    0.000000    0.000000    9.376682    0.000000    -0.000000    18.753366    0.000000    -0.000000    9.376682    0.000000    -0.000000    18.127773    -1.568062    -3.062734    36.382351    0.000000    -0.000000    18.191174    0.000000    -0.000000    26.795296    -3.581810    -5.855259    54.011322    0.000000    -0.000000    27.005663    0.000000    -0.000000    35.641682    -6.069849    -8.388966    72.174515    0.000000    -0.000000    36.087257    0.000000    -0.000000    -1.473403    2.760338    -3.411443    1.328711    -6.243792    21.363878    -1.121760    3.000484    -19.681263    0.062075    -4.000167    -0.694070    0.598206    3.140174    5.158445    -0.831246    -3.889768    -16.526552    0.083761    -1.609976    2.896576    -0.312260    -0.734820    0.419186    
